<svg width="15" height="15" viewBox="0 0 15 15" fill="none" xmlns="http://www.w3.org/2000/svg">
<path d="M11.875 5.265V4.37499C11.875 1.95876 9.91627 0 7.50001 0C5.08375 0 3.12502 1.95876 3.12502 4.37499V5.265C1.98753 5.76144 1.25166 6.88392 1.25002 8.12499V11.875C1.25207 13.6 2.64997 14.9979 4.375 15H10.625C12.35 14.9979 13.7479 13.6 13.75 11.875V8.12499C13.7484 6.88392 13.0125 5.76144 11.875 5.265ZM8.125 10.625C8.125 10.9702 7.84518 11.25 7.50001 11.25C7.15483 11.25 6.87502 10.9702 6.87502 10.625V9.375C6.87502 9.02982 7.15483 8.75001 7.50001 8.75001C7.84518 8.75001 8.125 9.02982 8.125 9.375V10.625ZM10.625 5.00001H4.375V4.37502C4.375 2.64914 5.7741 1.25001 7.50001 1.25001C9.22591 1.25001 10.625 2.64911 10.625 4.37502V5.00001Z" fill="#1952C0"/>
</svg>
