<svg width="20" height="20" viewBox="0 0 20 20" fill="none" xmlns="http://www.w3.org/2000/svg">
<g clip-path="url(#clip0_1_500)">
<path d="M19.6345 17.8712L15.7636 13.9986C18.66 10.128 17.8702 4.64214 13.9996 1.74571C10.1289 -1.15073 4.64311 -0.360966 1.74667 3.50968C-1.14976 7.38032 -0.359997 12.8662 3.51065 15.7626C6.61987 18.0893 10.8903 18.0893 13.9996 15.7626L17.8722 19.6352C18.3588 20.1218 19.1479 20.1218 19.6345 19.6352C20.1211 19.1485 20.1211 18.3595 19.6345 17.8729L19.6345 17.8712ZM8.78739 15.0151C5.34734 15.0151 2.55867 12.2265 2.55867 8.78642C2.55867 5.34637 5.34734 2.5577 8.78739 2.5577C12.2274 2.5577 15.0161 5.34637 15.0161 8.78642C15.0125 12.2249 12.2259 15.0115 8.78739 15.0151Z" fill="#1952C0"/>
</g>
<defs>
<clipPath id="clip0_1_500">
<rect width="20" height="20" fill="white"/>
</clipPath>
</defs>
</svg>
